<svg preserveAspectRatio="xMidYMid meet" data-bbox="0.273 0.114 144.889 28.257" xmlns="http://www.w3.org/2000/svg" viewBox="0.273 0.114 144.889 28.257" height="29" width="146" data-type="color" role="presentation" aria-hidden="true" aria-label="">
    <g>
        <path fill="#ffffff" d="M.273 16.102v11.546h5.71v-8.37H17.97v-5.774H6.268c1.141-3.752 4.567-6.639 8.563-6.639h3.71V1.092h-3.425C6.838 1.092.273 8.02.273 16.102" data-color="1"></path>
        <path fill="#ffffff" d="M55.078 16.68v10.68h5.709V16.68c0-5.485 4.281-9.815 9.705-9.815h1.141V1.092h-1.141c-8.564 0-15.414 6.928-15.414 15.587" data-color="1"></path>
        <path fill="#ffffff" d="M36.81 1.092c-7.422 0-13.13 6.062-13.13 13.278s5.994 13.28 13.13 13.28c7.135 0 13.13-6.062 13.13-13.279S44.23 1.092 36.81 1.092m0 21.072c-4.282 0-7.422-3.464-7.422-7.505s3.425-7.505 7.422-7.505 7.42 3.464 7.42 7.505-3.139 7.505-7.42 7.505" data-color="1"></path>
        <path fill="#ffffff" d="M98.75 1.092c-2.57 0-5.138 1.154-6.851 2.886-1.713-1.732-4.282-2.886-6.85-2.886-5.424 0-9.705 4.33-9.705 9.814V27.36h5.708V10.906c0-2.31 1.713-4.041 3.996-4.041s3.996 1.732 3.996 4.041V27.36h5.71V10.906c0-2.31 1.712-4.041 3.995-4.041s3.996 1.732 3.996 4.041V27.36h5.709V10.906c0-5.196-4.281-9.814-9.705-9.814" data-color="1"></path>
        <path fill="#A4EF38" d="m141.539.45-8.5 8.549 3.623 3.684 8.5-8.55z" data-color="2"></path>
        <path fill="#A4EF38" d="m121.072.114-3.642 3.664 8.454 8.596 3.642-3.664z" data-color="2"></path>
        <path fill="#A4EF38" d="m125.8 16.138-8.499 8.55 3.623 3.683 8.5-8.55z" data-color="2"></path>
        <path fill="#A4EF38" d="m136.58 16.032-3.642 3.664 8.454 8.596 3.642-3.664z" data-color="2"></path>
    </g>
</svg>